<svg width="0" height="0" class="hidden">
  <symbol xmlns="http://www.w3.org/2000/svg" viewBox="0 0 100 100" id="entypo-social_instagram-with-circle">
    <path d="M65.0001 49.9995C65.0001 53.9778 63.4198 57.7931 60.6067 60.6061C57.7937 63.4192 53.9784 64.9995 50.0001 64.9995C46.0219 64.9995 42.2066 63.4192 39.3935 60.6061C36.5805 57.7931 35.0001 53.9778 35.0001 49.9995C35.0001 49.1445 35.0901 48.3095 35.2451 47.4995H30.0001V67.4845C30.0001 68.8745 31.1251 69.9995 32.5151 69.9995H67.4901C68.1563 69.9982 68.7947 69.7326 69.2653 69.2611C69.7358 68.7896 70.0001 68.1507 70.0001 67.4845V47.4995H64.7551C64.9101 48.3095 65.0001 49.1445 65.0001 49.9995V49.9995ZM50.0001 59.9995C51.3137 59.9992 52.6143 59.7401 53.8277 59.2372C55.0412 58.7342 56.1436 57.9971 57.0722 57.0681C58.0008 56.139 58.7373 55.0362 59.2397 53.8225C59.7421 52.6088 60.0005 51.3081 60.0001 49.9945C59.9998 48.681 59.7407 47.3803 59.2378 46.1669C58.7348 44.9535 57.9977 43.851 57.0687 42.9224C56.1396 41.9938 55.0368 41.2573 53.8231 40.755C52.6094 40.2526 51.3087 39.9942 49.9951 39.9945C47.3423 39.9952 44.7984 41.0496 42.923 42.9259C41.0477 44.8022 39.9945 47.3467 39.9951 49.9995C39.9958 52.6523 41.0503 55.1963 42.9266 57.0716C44.8029 58.947 47.3473 60.0002 50.0001 59.9995V59.9995ZM62.0001 39.4995H67.9951C68.3934 39.4995 68.7755 39.3416 69.0576 39.0605C69.3397 38.7793 69.4988 38.3978 69.5001 37.9995V32.0045C69.5001 31.6054 69.3416 31.2226 69.0593 30.9403C68.7771 30.6581 68.3943 30.4995 67.9951 30.4995H62.0001C61.601 30.4995 61.2182 30.6581 60.9359 30.9403C60.6537 31.2226 60.4951 31.6054 60.4951 32.0045V37.9995C60.5001 38.8245 61.1751 39.4995 62.0001 39.4995V39.4995ZM50.0001 1.99951C37.2697 1.99951 25.0607 7.05664 16.059 16.0584C7.05725 25.0601 2.00012 37.2691 2.00012 49.9995C2.00012 62.7299 7.05725 74.9389 16.059 83.9406C25.0607 92.9424 37.2697 97.9995 50.0001 97.9995C56.3036 97.9995 62.5453 96.758 68.3689 94.3457C74.1926 91.9335 79.484 88.3979 83.9412 83.9406C88.3985 79.4834 91.9341 74.1919 94.3463 68.3683C96.7586 62.5447 98.0001 56.303 98.0001 49.9995C98.0001 43.6961 96.7586 37.4543 94.3463 31.6307C91.9341 25.8071 88.3985 20.5156 83.9412 16.0584C79.484 11.6012 74.1926 8.06552 68.3689 5.65329C62.5453 3.24107 56.3036 1.99951 50.0001 1.99951V1.99951ZM75.0001 69.4445C75.0001 72.4995 72.5001 74.9995 69.4451 74.9995H30.5551C27.5001 74.9995 25.0001 72.4995 25.0001 69.4445V30.5545C25.0001 27.4995 27.5001 24.9995 30.5551 24.9995H69.4451C72.5001 24.9995 75.0001 27.4995 75.0001 30.5545V69.4445V69.4445Z"></path>
  </symbol>
  <symbol xmlns="http://www.w3.org/2000/svg" viewBox="0 0 100 100" id="entypo-social_linkedin-with-circle">
    <path d="M50.0001 1.99951C23.4901 1.99951 2.00012 23.4895 2.00012 49.9995C2.00012 76.5095 23.4901 97.9995 50.0001 97.9995C76.5101 97.9995 98.0001 76.5095 98.0001 49.9995C98.0001 23.4895 76.5101 1.99951 50.0001 1.99951ZM38.2501 69.8945H28.5301V38.6145H38.2501V69.8945ZM33.3301 34.7745C30.2601 34.7745 28.2751 32.5995 28.2751 29.9095C28.2751 27.1645 30.3201 25.0545 33.4551 25.0545C36.5901 25.0545 38.5101 27.1645 38.5701 29.9095C38.5701 32.5995 36.5901 34.7745 33.3301 34.7745ZM73.7501 69.8945H64.0301V52.5595C64.0301 48.5245 62.6201 45.7845 59.1051 45.7845C56.4201 45.7845 54.8251 47.6395 54.1201 49.4245C53.8601 50.0595 53.7951 50.9595 53.7951 51.8545V69.8895H44.0701V48.5895C44.0701 44.6845 43.9451 41.4195 43.8151 38.6095H52.2601L52.7051 42.9545H52.9001C54.1801 40.9145 57.3151 37.9045 62.5601 37.9045C68.9551 37.9045 73.7501 42.1895 73.7501 51.3995V69.8945V69.8945Z"></path>
  </symbol>
  <symbol xmlns="http://www.w3.org/2000/svg" viewBox="0 0 100 100" id="entypo-social_twitter-with-circle">
    <path d="M50.0001 1.99951C23.4901 1.99951 2.00012 23.4895 2.00012 49.9995C2.00012 76.5095 23.4901 97.9995 50.0001 97.9995C76.5101 97.9995 98.0001 76.5095 98.0001 49.9995C98.0001 23.4895 76.5101 1.99951 50.0001 1.99951ZM69.5251 41.3195C69.5451 41.7295 69.5501 42.1395 69.5501 42.5395C69.5501 55.0395 60.0451 69.4445 42.6551 69.4445C37.5166 69.4531 32.485 67.9772 28.1651 65.1945C28.9001 65.2845 29.6551 65.3195 30.4201 65.3195C34.8501 65.3195 38.9251 63.8145 42.1601 61.2745C40.1887 61.2358 38.2785 60.583 36.6957 59.4071C35.1129 58.2312 33.9364 56.5908 33.3301 54.7145C34.7459 54.9837 36.2044 54.9273 37.5951 54.5495C35.4554 54.1168 33.5311 52.9574 32.1487 51.2678C30.7662 49.5783 30.0107 47.4626 30.0101 45.2795V45.1645C31.2851 45.8695 32.7451 46.2995 34.2951 46.3495C32.2891 45.0142 30.8691 42.9629 30.3253 40.6152C29.7816 38.2675 30.1554 35.8008 31.3701 33.7195C33.7449 36.6395 36.7064 39.0282 40.063 40.7311C43.4195 42.4339 47.0962 43.4128 50.8551 43.6045C50.3772 41.5761 50.5829 39.4465 51.4402 37.547C52.2974 35.6475 53.7582 34.0845 55.5955 33.1008C57.4327 32.1172 59.5435 31.7681 61.5996 32.1079C63.6557 32.4476 65.542 33.4571 66.9651 34.9795C69.081 34.5609 71.11 33.7848 72.9651 32.6845C72.2599 34.8752 70.7835 36.7354 68.8101 37.9195C70.6844 37.6938 72.5145 37.1899 74.2401 36.4245C72.9726 38.324 71.3758 39.9817 69.5251 41.3195V41.3195Z"></path>
  </symbol>
  <symbol xmlns="http://www.w3.org/2000/svg" viewBox="0 0 100 100" id="entypo-social_vimeo-with-circle">
    <path d="M50.0001 1.99951C23.4901 1.99951 2.00012 23.4895 2.00012 49.9995C2.00012 76.5095 23.4901 97.9995 50.0001 97.9995C76.5101 97.9995 98.0001 76.5095 98.0001 49.9995C98.0001 23.4895 76.5101 1.99951 50.0001 1.99951ZM72.0051 40.7495C69.4651 55.3295 55.2651 67.6845 51.0001 70.5045C46.7301 73.3145 42.8301 69.3695 41.4201 66.3845C39.8001 62.9745 34.9551 44.5195 33.6851 42.9845C32.4151 41.4545 28.6051 44.5195 28.6051 44.5195L26.7601 42.0495C26.7601 42.0495 34.4951 32.6345 40.3801 31.4645C46.6201 30.2145 46.6101 41.2195 48.1101 47.3345C49.5651 53.2495 50.5401 56.6295 51.8051 56.6295C53.0751 56.6295 55.5001 53.3395 58.1501 48.2795C60.8101 43.2195 58.0401 38.7495 52.8451 41.9295C54.9201 29.2295 74.5451 26.1695 72.0051 40.7495Z"></path>
  </symbol>
  <symbol xmlns="http://www.w3.org/2000/svg" viewBox="0 0 100 100" id="entypo-social_youtube-with-circle">
    <path d="M58.015 49.1645L46.785 43.9245C45.805 43.4695 45 43.9795 45 45.0645V54.9345C45 56.0195 45.805 56.5295 46.785 56.0745L58.01 50.8345C58.995 50.3745 58.995 49.6245 58.015 49.1645ZM50 1.99951C23.49 1.99951 2 23.4895 2 49.9995C2 76.5095 23.49 97.9995 50 97.9995C76.51 97.9995 98 76.5095 98 49.9995C98 23.4895 76.51 1.99951 50 1.99951ZM50 69.4995C25.43 69.4995 25 67.2845 25 49.9995C25 32.7145 25.43 30.4995 50 30.4995C74.57 30.4995 75 32.7145 75 49.9995C75 67.2845 74.57 69.4995 50 69.4995Z"></path>
  </symbol>
  <symbol xmlns="http://www.w3.org/2000/svg" viewBox="0 0 24 24" id="ic_round-access-time">
    <path d="M11.99 2C6.47 2 2 6.48 2 12C2 17.52 6.47 22 11.99 22C17.52 22 22 17.52 22 12C22 6.48 17.52 2 11.99 2ZM12 20C7.58 20 4 16.42 4 12C4 7.58 7.58 4 12 4C16.42 4 20 7.58 20 12C20 16.42 16.42 20 12 20ZM11.78 7H11.72C11.32 7 11 7.32 11 7.72V12.44C11 12.79 11.18 13.12 11.49 13.3L15.64 15.79C15.98 15.99 16.42 15.89 16.62 15.55C16.6702 15.469 16.7036 15.3788 16.7182 15.2846C16.7328 15.1905 16.7283 15.0943 16.705 15.002C16.6817 14.9096 16.64 14.8229 16.5824 14.7469C16.5249 14.671 16.4526 14.6074 16.37 14.56L12.5 12.26V7.72C12.5 7.32 12.18 7 11.78 7V7Z"></path>
  </symbol>
  <symbol xmlns="http://www.w3.org/2000/svg" viewBox="0 0 32 32" id="carbon_map">
    <path d="M16 24L9.90997 15.4C8.91315 14.2231 8.27121 12.7872 8.05892 11.2595C7.84664 9.73183 8.07273 8.17529 8.71088 6.77115C9.34902 5.36702 10.373 4.17308 11.6634 3.32839C12.9539 2.4837 14.4578 2.02302 16 2C18.1377 2.02113 20.18 2.88859 21.6794 4.41241C23.1789 5.93623 24.0133 7.99219 24 10.13C24.0008 11.9949 23.3659 13.8044 22.2 15.26L16 24ZM16 4C14.3918 4.01847 12.8567 4.67438 11.7318 5.82371C10.6068 6.97303 9.98397 8.52183 9.99997 10.13C10.0067 11.5978 10.5348 13.0155 11.49 14.13L16 20.52L20.63 14C21.5101 12.9014 21.9929 11.5376 22 10.13C22.016 8.52183 21.3931 6.97303 20.2682 5.82371C19.1432 4.67438 17.6081 4.01847 16 4V4Z"></path>
    <path d="M16 11C17.1046 11 18 10.1046 18 9C18 7.89543 17.1046 7 16 7C14.8954 7 14 7.89543 14 9C14 10.1046 14.8954 11 16 11Z"></path>
    <path d="M28 12H26V14H28V28H4V14H6V12H4C3.46957 12 2.96086 12.2107 2.58579 12.5858C2.21071 12.9609 2 13.4696 2 14V28C2 28.5304 2.21071 29.0391 2.58579 29.4142C2.96086 29.7893 3.46957 30 4 30H28C28.5304 30 29.0391 29.7893 29.4142 29.4142C29.7893 29.0391 30 28.5304 30 28V14C30 13.4696 29.7893 12.9609 29.4142 12.5858C29.0391 12.2107 28.5304 12 28 12Z"></path>
  </symbol>
  <symbol xmlns="http://www.w3.org/2000/svg" viewBox="0 0 32 32" id="carbon_phone-voice">
    <path d="M24 13H22C21.9992 12.2046 21.6829 11.442 21.1204 10.8796C20.558 10.3171 19.7954 10.0008 19 10V8C20.3256 8.00159 21.5964 8.52888 22.5338 9.46622C23.4711 10.4036 23.9984 11.6744 24 13V13Z"></path>
    <path d="M28 13H26C25.9979 11.1441 25.2597 9.36489 23.9474 8.05259C22.6351 6.7403 20.8559 6.00212 19 6V4C21.3861 4.00265 23.6738 4.95171 25.361 6.63896C27.0483 8.32622 27.9974 10.6139 28 13V13Z"></path>
    <path d="M26 29H25.83C6.18004 27.87 3.39004 11.29 3.00004 6.23C2.93908 5.43675 3.19572 4.65177 3.7135 4.04772C4.23128 3.44368 4.96779 3.07004 5.76104 3.009C5.84037 3.003 5.92004 3 6.00004 3H11.27C11.6706 2.99961 12.062 3.11951 12.3937 3.34416C12.7253 3.56881 12.9818 3.88787 13.13 4.26L14.65 8C14.7964 8.36355 14.8327 8.76208 14.7545 9.14609C14.6763 9.5301 14.4869 9.88267 14.21 10.16L12.08 12.31C12.4114 14.2013 13.3164 15.945 14.6724 17.3045C16.0283 18.664 17.7696 19.5737 19.66 19.91L21.83 17.76C22.1115 17.4862 22.4674 17.3013 22.8533 17.2283C23.2392 17.1554 23.638 17.1977 24 17.35L27.77 18.86C28.1366 19.0129 28.4493 19.2714 28.6683 19.6027C28.8874 19.9339 29.0028 20.3229 29 20.72V26C29 26.7956 28.684 27.5587 28.1214 28.1213C27.5587 28.6839 26.7957 29 26 29ZM6.00004 5C5.86871 4.99961 5.7386 5.02508 5.61712 5.07497C5.49565 5.12486 5.38519 5.19819 5.29205 5.29077C5.19891 5.38335 5.12492 5.49337 5.0743 5.61455C5.02368 5.73572 4.99743 5.86568 4.99704 5.997C4.99704 6.025 4.99804 6.05267 5.00004 6.08C5.46004 12 8.41004 26 25.94 27C26.2047 27.0159 26.4648 26.926 26.6632 26.7501C26.8616 26.5742 26.9821 26.3267 26.998 26.062L27 26V20.72L23.23 19.21L20.36 22.06L19.88 22C11.18 20.91 10 12.21 10 12.12L9.94003 11.64L12.78 8.77L11.28 5H6.00004Z"></path>
  </symbol>
  <symbol xmlns="http://www.w3.org/2000/svg" viewBox="0 0 36 36" id="clarity_email-line">
    <path d="M32 6H4C3.46957 6 2.96086 6.21071 2.58579 6.58579C2.21071 6.96086 2 7.46957 2 8V28C2 28.5304 2.21071 29.0391 2.58579 29.4142C2.96086 29.7893 3.46957 30 4 30H32C32.5304 30 33.0391 29.7893 33.4142 29.4142C33.7893 29.0391 34 28.5304 34 28V8C34 7.46957 33.7893 6.96086 33.4142 6.58579C33.0391 6.21071 32.5304 6 32 6V6ZM30.46 28H5.66L12.66 20.76L11.22 19.37L4 26.84V9.52L16.43 21.89C16.8047 22.2625 17.3116 22.4716 17.84 22.4716C18.3684 22.4716 18.8753 22.2625 19.25 21.89L32 9.21V26.71L24.64 19.35L23.23 20.76L30.46 28ZM5.31 8H30.38L17.84 20.47L5.31 8Z"></path>
  </symbol>
  <symbol xmlns="http://www.w3.org/2000/svg" viewBox="0 0 100 100" id="entypo-social_facebook-with-circle">
    <path d="M50.0001 1.99951C23.4901 1.99951 2.00012 23.4895 2.00012 49.9995C2.00012 76.5095 23.4901 97.9995 50.0001 97.9995C76.5101 97.9995 98.0001 76.5095 98.0001 49.9995C98.0001 23.4895 76.5101 1.99951 50.0001 1.99951ZM61.3701 35.1695H54.1551C53.3001 35.1695 52.3501 36.2945 52.3501 37.7895V42.9995H61.3751L60.0101 50.4295H52.3501V72.7345H43.8351V50.4295H36.1101V42.9995H43.8351V38.6295C43.8351 32.3595 48.1851 27.2645 54.1551 27.2645H61.3701V35.1695V35.1695Z"></path>
  </symbol>
</svg>